<svg xmlns="http://www.w3.org/2000/svg" viewBox="0 0 600 400">
<defs><linearGradient id="sunset" x1="0" y1="0" x2="0" y2="1"><stop offset="0%" stop-color="#E8C8A0"/><stop offset="60%" stop-color="#F0DCC4"/><stop offset="100%" stop-color="#F5EDE0"/></linearGradient></defs>
<rect width="600" height="400" fill="url(#sunset)"/>
<!-- Sun -->
<circle cx="300" cy="100" r="40" fill="#D4B896" opacity="0.2"/>
<circle cx="300" cy="100" r="25" fill="#C8A882" opacity="0.15"/>
<!-- Trees -->
<g opacity="0.1">
<path d="M50 380 L70 280 L60 290 L80 200 L70 210 L85 140 L100 210 L90 200 L110 290 L100 280 L120 380Z" fill="#2B4570"/>
<path d="M480 380 L500 300 L490 310 L510 230 L500 240 L515 170 L530 240 L520 230 L540 310 L530 300 L550 380Z" fill="#2B4570"/>
</g>
<!-- Circle of people -->
<g opacity="0.5">
<circle cx="300" cy="300" r="80" fill="none" stroke="#C8A882" stroke-width="0.5" stroke-dasharray="4 8" opacity="0.3"/>
<circle cx="300" cy="220" r="8" fill="#4B5563"/><path d="M300 230 L300 260" stroke="#4B5563" stroke-width="4" stroke-linecap="round"/>
<circle cx="356" cy="240" r="8" fill="#6B7280"/><path d="M356 250 L356 278" stroke="#6B7280" stroke-width="4" stroke-linecap="round"/>
<circle cx="380" cy="300" r="8" fill="#374151"/><path d="M380 310 L380 338" stroke="#374151" stroke-width="4" stroke-linecap="round"/>
<circle cx="356" cy="360" r="8" fill="#555F6D"/><path d="M356 370 L356 390" stroke="#555F6D" stroke-width="3.5" stroke-linecap="round"/>
<circle cx="244" cy="360" r="8" fill="#4B5563"/><path d="M244 370 L244 390" stroke="#4B5563" stroke-width="3.5" stroke-linecap="round"/>
<circle cx="220" cy="300" r="8" fill="#6B7280"/><path d="M220 310 L220 338" stroke="#6B7280" stroke-width="4" stroke-linecap="round"/>
<circle cx="244" cy="240" r="8" fill="#374151"/><path d="M244 250 L244 278" stroke="#374151" stroke-width="4" stroke-linecap="round"/>
</g>
<!-- Warm fire glow in center -->
<circle cx="300" cy="300" r="15" fill="#D4B896" opacity="0.15"/>
<circle cx="300" cy="300" r="8" fill="#C8A882" opacity="0.12"/>
<text x="300" y="385" text-anchor="middle" font-family="Georgia,serif" font-size="10" fill="#9B7B4F" opacity="0.35">Праздничная встреча · Масленица</text>
</svg>
