<svg xmlns="http://www.w3.org/2000/svg" viewBox="0 0 600 400">
<defs><linearGradient id="sky1" x1="0" y1="0" x2="0" y2="1"><stop offset="0%" stop-color="#E8D5B8"/><stop offset="100%" stop-color="#F5EDE0"/></linearGradient></defs>
<rect width="600" height="400" fill="url(#sky1)"/>
<!-- Kremlin silhouette -->
<path d="M0 280 L80 280 L80 220 L90 180 L100 220 L100 280 L150 280 L150 200 L160 160 L170 200 L170 280 L250 280 L250 230 L260 150 L270 230 L270 280 L350 280 L350 240 L355 190 L360 170 L365 190 L370 240 L370 280 L450 280 L450 250 L460 200 L470 250 L470 280 L530 280 L530 260 L540 230 L550 260 L550 280 L600 280 L600 400 L0 400Z" fill="#2B4570" opacity="0.12"/>
<!-- Ground -->
<rect x="0" y="320" width="600" height="80" fill="#C8A882" opacity="0.08"/>
<!-- People walking - group of 5 silhouettes -->
<g opacity="0.6">
<ellipse cx="180" cy="360" rx="12" ry="3" fill="#2B4570" opacity="0.15"/>
<path d="M180 310 C180 290 173 280 173 265 C173 255 177 248 180 248 C183 248 187 255 187 265 C187 280 180 290 180 310Z" fill="#4B5563"/>
<circle cx="180" cy="242" r="8" fill="#4B5563"/>

<ellipse cx="210" cy="362" rx="12" ry="3" fill="#2B4570" opacity="0.15"/>
<path d="M210 315 C210 295 203 285 203 270 C203 260 207 253 210 253 C213 253 217 260 217 270 C217 285 210 295 210 315Z" fill="#6B7280"/>
<circle cx="210" cy="247" r="8" fill="#6B7280"/>

<ellipse cx="240" cy="358" rx="12" ry="3" fill="#2B4570" opacity="0.15"/>
<path d="M240 308 C240 288 233 278 233 263 C233 253 237 246 240 246 C243 246 247 253 247 263 C247 278 240 288 240 308Z" fill="#374151"/>
<circle cx="240" cy="240" r="8" fill="#374151"/>

<ellipse cx="270" cy="361" rx="12" ry="3" fill="#2B4570" opacity="0.15"/>
<path d="M270 313 C270 293 263 283 263 268 C263 258 267 251 270 251 C273 251 277 258 277 268 C277 283 270 293 270 313Z" fill="#555F6D"/>
<circle cx="270" cy="245" r="8" fill="#555F6D"/>

<ellipse cx="300" cy="359" rx="12" ry="3" fill="#2B4570" opacity="0.15"/>
<path d="M300 310 C300 290 293 280 293 265 C293 255 297 248 300 248 C303 248 307 255 307 265 C307 280 300 290 300 310Z" fill="#4B5563"/>
<circle cx="300" cy="242" r="8" fill="#4B5563"/>
</g>
<!-- Warm overlay -->
<rect width="600" height="400" fill="#9B7B4F" opacity="0.03"/>
<text x="300" y="385" text-anchor="middle" font-family="Georgia,serif" font-size="10" fill="#9B7B4F" opacity="0.35">Натурный урок · Москва</text>
</svg>
